<svg id="Layer_1" data-name="Layer 1" xmlns="http://www.w3.org/2000/svg" viewBox="0 0 1105.4713 74.991"><defs><style>.cls-1{fill:#3597d3;}.cls-2,.cls-3{isolation:isolate;}.cls-3{font-size:16px;fill:$white;font-family:OpenSans, Open Sans;}.cls-4{fill:#80bce2;}.cls-5{fill:#6eb3df;}.cls-6{fill:#59a8d9;}.cls-7{fill:#48a0d7;}</style></defs><title>flow-chart2</title><polygon class="cls-1" points="194.457 0 0 0 36.604 37.495 0 74.991 194.457 74.991 231.061 37.495 194.457 0"/><g class="cls-2"><text class="cls-3" transform="translate(39.46809 32.5832)">Employment record <tspan x="27.35938" y="19.2002">maintenance</tspan></text></g><polygon class="cls-4" points="1068.867 0 874.41 0 911.014 37.495 874.41 74.991 1068.867 74.991 1105.471 37.495 1068.867 0"/><g class="cls-2"><text class="cls-3" transform="translate(931.14002 32.58326)">Arbitration and <tspan x="2.41797" y="19.2002">staff behaviour</tspan></text></g><polygon class="cls-5" points="850.265 0 655.807 0 692.411 37.495 655.807 74.991 850.265 74.991 886.869 37.495 850.265 0"/><g class="cls-2"><text class="cls-3" transform="translate(699.0535 42.18253)">Pay roll and benefit</text></g><polygon class="cls-6" points="631.662 0 437.205 0 473.809 37.495 437.205 74.991 631.662 74.991 668.266 37.495 631.662 0"/><text class="cls-3" transform="translate(478.28245 42.18296)">Work cover facilities</text><polygon class="cls-7" points="413.06 0 218.602 0 255.206 37.495 218.602 74.991 413.06 74.991 449.664 37.495 413.06 0"/><text class="cls-3" transform="translate(252.31677 32.58249)">Candidate counsilling <tspan x="30.33203" y="19.2002">and induction</tspan></text></svg>