<svg id="Layer_1" data-name="Layer 1" xmlns="http://www.w3.org/2000/svg" viewBox="0 0 1105.55125 74.99066"><defs><style>.cls-1{fill:#3597d3;}.cls-2{font-size:18px;fill:$white;font-family:OpenSans, Open Sans;}.cls-3{fill:#80bce2;}.cls-4{fill:#6eb3df;}.cls-5{fill:#59a8d9;}.cls-6{fill:#48a0d7;}</style></defs><title>Flow chart</title><polygon class="cls-1" points="194.457 0 0 0 36.604 37.495 0 74.991 194.457 74.991 231.061 37.495 194.457 0"/><text class="cls-2" transform="translate(65.12086 31.96863)">Analyse Job <tspan x="-2.47412" y="21.59961">requirement</tspan></text><polygon class="cls-3" points="1068.947 0 874.49 0 911.094 37.495 874.49 74.991 1068.947 74.991 1105.551 37.495 1068.947 0"/><text class="cls-2" transform="translate(917.33942 31.96902)">Pre-employment <tspan x="44.521" y="21.59961">checks</tspan></text><polygon class="cls-4" points="850.325 0 655.867 0 692.471 37.495 655.867 74.991 850.325 74.991 886.929 37.495 850.325 0"/><text class="cls-2" transform="translate(730.29115 31.96915)">Interview <tspan x="18.65039" y="21.59961">stage</tspan></text><polygon class="cls-5" points="631.702 0 437.245 0 473.849 37.495 437.245 74.991 631.702 74.991 668.306 37.495 631.702 0"/><text class="cls-2" transform="translate(505.51673 42.76856)">Skill testing</text><polygon class="cls-6" points="413.08 0 218.622 0 255.226 37.495 218.622 74.991 413.08 74.991 449.684 37.495 413.08 0"/><text class="cls-2" transform="translate(277.77134 31.96888)">Chossing the <tspan x="5.39209" y="21.59961">Right Profile</tspan></text></svg>