<?xml version="1.0" standalone="no"?>
<!DOCTYPE svg PUBLIC "-//W3C//DTD SVG 20010904//EN"
 "http://www.w3.org/TR/2001/REC-SVG-20010904/DTD/svg10.dtd">
<svg version="1.0" xmlns="http://www.w3.org/2000/svg"
 width="1116.000000pt" height="1116.000000pt" viewBox="0 0 1116.000000 1116.000000"
 preserveAspectRatio="xMidYMid meet">
<metadata>
Created by potrace 1.11, written by Peter Selinger 2001-2013
</metadata>
<g transform="translate(0.000000,1116.000000) scale(0.100000,-0.100000)"
fill="#000000" stroke="none">
<path d="M5338 11155 c-2 -1 -56 -6 -120 -9 -65 -4 -128 -9 -140 -11 -13 -2
-54 -6 -93 -10 -38 -3 -77 -8 -85 -10 -8 -2 -40 -6 -71 -10 -31 -3 -65 -7 -75
-9 -11 -2 -41 -7 -68 -10 -27 -4 -52 -9 -55 -10 -3 -2 -26 -7 -51 -10 -50 -7
-47 -6 -185 -36 -55 -12 -125 -28 -155 -37 -30 -8 -65 -16 -77 -19 -114 -23
-494 -149 -684 -227 -840 -342 -1580 -880 -2154 -1562 -37 -44 -75 -89 -84
-101 -56 -66 -197 -258 -276 -374 -354 -522 -609 -1079 -770 -1680 -24 -91
-46 -176 -49 -190 -2 -14 -9 -43 -14 -65 -6 -22 -13 -53 -16 -70 -2 -16 -11
-66 -20 -110 -21 -110 -24 -129 -36 -220 -6 -44 -13 -91 -15 -105 -2 -14 -7
-56 -11 -95 -3 -38 -8 -81 -9 -95 -32 -277 -22 -913 19 -1168 3 -15 7 -49 10
-77 6 -47 18 -134 21 -145 1 -3 5 -27 10 -55 4 -27 9 -57 11 -65 34 -174 49
-237 79 -355 20 -77 38 -150 41 -163 7 -37 136 -426 144 -437 4 -5 13 -28 20
-50 21 -66 138 -331 205 -465 236 -472 530 -903 875 -1280 91 -100 287 -293
395 -390 109 -97 131 -116 229 -194 537 -432 1163 -768 1816 -974 103 -33 196
-60 226 -67 11 -2 73 -17 139 -34 114 -28 278 -63 355 -75 407 -64 580 -79
945 -79 205 -1 453 8 505 18 8 1 51 6 95 9 44 4 87 9 95 11 8 2 40 7 70 10 68
8 220 32 280 45 25 5 61 12 80 15 59 10 360 84 450 111 46 14 91 27 100 29 8
2 74 24 145 48 397 137 763 309 1111 522 471 288 927 674 1283 1085 40 47 84
97 97 112 30 35 229 297 275 362 45 63 56 81 103 157 22 35 43 66 46 69 7 6
82 131 154 258 248 436 464 1005 572 1507 9 39 17 79 20 90 22 103 72 432 80
525 3 36 7 76 10 90 24 144 24 761 0 990 -3 25 -8 73 -11 108 -4 35 -8 71 -10
80 -1 9 -6 46 -10 82 -4 36 -8 67 -10 70 -2 3 -6 28 -9 55 -4 28 -9 57 -11 65
-2 8 -6 31 -9 50 -3 19 -8 46 -11 60 -3 14 -8 39 -11 55 -3 17 -14 68 -25 115
-11 47 -22 96 -25 110 -2 14 -8 34 -11 45 -4 11 -8 25 -9 30 -24 130 -183 595
-270 790 -10 22 -18 42 -19 45 -9 30 -164 343 -213 431 -121 216 -258 433
-376 594 -64 88 -54 75 -133 175 -58 74 -88 112 -178 218 -138 163 -454 469
-655 632 -69 56 -134 109 -145 119 -42 34 -204 150 -305 218 -526 352 -1107
611 -1710 764 -107 27 -206 52 -220 54 -14 3 -36 7 -50 10 -56 11 -146 28
-167 30 -11 2 -29 5 -40 8 -10 3 -42 9 -72 12 -30 4 -63 9 -75 11 -12 2 -43 6
-71 9 -27 3 -66 8 -85 10 -19 2 -66 7 -105 10 -38 4 -90 9 -115 11 -48 5 -628
13 -632 9z m582 -1209 c25 -3 74 -8 110 -11 36 -4 76 -8 90 -10 14 -2 48 -6
75 -9 45 -6 119 -18 185 -31 14 -3 50 -9 80 -15 115 -21 342 -83 510 -139
1092 -367 1996 -1147 2510 -2166 96 -191 122 -249 175 -385 20 -52 41 -104 46
-115 6 -12 11 -27 13 -35 1 -8 19 -67 40 -130 21 -63 39 -122 41 -130 2 -8 15
-62 30 -120 15 -58 29 -114 31 -125 2 -11 10 -54 19 -95 18 -91 23 -122 31
-180 3 -25 8 -53 10 -64 2 -10 6 -44 9 -75 3 -31 8 -70 10 -86 25 -188 25
-695 0 -890 -2 -16 -7 -59 -10 -94 -3 -35 -7 -66 -9 -70 -2 -3 -7 -33 -11 -66
-28 -245 -164 -732 -280 -1000 -168 -388 -329 -667 -563 -975 -413 -542 -945
-980 -1552 -1277 -456 -223 -933 -364 -1415 -419 -27 -3 -61 -7 -74 -9 -146
-24 -711 -23 -886 0 -16 2 -55 7 -85 10 -100 11 -238 35 -460 80 -8 2 -42 10
-75 20 -33 9 -69 18 -80 20 -34 6 -215 63 -315 98 -245 88 -557 233 -735 342
-49 30 -97 58 -105 61 -26 12 -261 174 -345 238 -681 519 -1187 1209 -1478
2016 -56 154 -139 441 -152 525 -2 11 -6 31 -9 45 -12 48 -44 246 -56 335 -6
50 -13 104 -15 120 -25 174 -25 711 0 890 2 17 6 53 9 80 2 28 9 79 15 115 6
36 13 82 17 104 3 21 8 48 10 60 2 11 7 37 10 56 30 180 169 636 249 815 7 17
30 68 50 115 279 637 766 1252 1345 1694 113 87 364 256 379 256 6 0 11 5 11
10 0 6 4 10 9 10 4 0 48 23 97 52 276 160 673 323 1003 412 129 35 384 91 456
100 80 9 221 27 250 31 17 3 80 8 140 11 61 4 111 8 113 9 6 5 487 -3 532 -9z"/>
<path d="M4930 8644 c-206 -119 -449 -259 -540 -311 -91 -53 -190 -109 -220
-126 -30 -16 -67 -38 -82 -49 -14 -10 -28 -18 -31 -18 -3 0 -50 -27 -105 -59
-55 -32 -124 -72 -154 -89 -29 -16 -168 -96 -308 -177 -140 -81 -273 -157
-295 -169 -22 -13 -128 -74 -235 -136 -107 -62 -250 -144 -317 -182 -78 -44
-123 -76 -124 -86 -1 -22 -1 -3312 0 -3333 1 -8 16 -23 34 -32 17 -9 73 -39
122 -67 50 -27 113 -62 140 -76 28 -15 102 -56 165 -91 111 -63 116 -64 155
-53 22 6 45 12 50 14 6 1 35 10 66 19 l57 17 0 1562 c1 860 1 1595 1 1633 1
62 4 71 24 80 12 6 79 41 150 78 l127 68 0 -68 c1 -37 2 -894 3 -1903 l2
-1835 115 -63 c63 -35 144 -79 180 -99 36 -20 114 -63 174 -96 l109 -60 56 17
c31 9 74 22 96 28 22 6 44 15 49 19 6 5 10 910 10 2264 l1 2256 105 55 c58 31
129 69 159 85 30 16 56 27 59 25 2 -2 4 -1140 4 -2528 -1 -1388 2 -2529 6
-2534 4 -6 129 -77 277 -159 149 -81 275 -152 282 -157 10 -8 177 32 213 52
13 8 15 357 15 3191 l0 3183 -75 48 c-41 26 -79 48 -83 48 -5 0 -15 7 -23 15
-9 8 -21 15 -27 15 -7 0 -181 -98 -387 -216z"/>
<path d="M5746 8806 c-48 -30 -93 -59 -100 -66 -15 -15 -16 -6367 -1 -6380 6
-5 22 -11 35 -14 14 -3 56 -14 94 -25 l69 -21 71 39 c39 21 98 53 131 71 33
18 74 41 90 50 17 10 57 32 90 50 134 73 205 114 205 121 0 4 28 23 63 42 34
19 161 92 282 162 121 70 245 141 275 158 30 16 67 38 82 49 14 10 28 18 31
18 2 0 56 30 118 66 63 37 128 74 144 84 17 9 166 95 333 191 166 96 310 179
320 184 24 14 223 128 244 140 10 5 83 47 163 93 79 45 148 90 153 100 5 12 8
1796 3 1880 -1 9 -199 12 -956 12 l-955 0 2 -291 3 -291 558 0 557 1 0 -67 c1
-88 1 -874 0 -888 0 -7 -17 -21 -37 -32 -21 -10 -99 -52 -173 -92 -167 -90
-241 -129 -350 -187 -47 -25 -107 -58 -135 -73 -27 -15 -84 -45 -125 -68 -41
-22 -193 -103 -337 -181 -144 -77 -264 -141 -265 -141 -2 0 -3 938 -3 2084 0
1146 2 2083 5 2081 21 -11 269 -145 328 -176 171 -92 230 -124 277 -149 69
-37 185 -99 280 -150 44 -23 98 -53 120 -65 42 -23 113 -62 300 -160 61 -32
112 -60 113 -61 2 -1 4 -127 4 -278 l-1 -276 395 0 c308 0 394 3 395 13 0 6 1
209 1 450 1 367 -1 440 -13 448 -14 9 -525 305 -601 348 -66 37 -102 57 -156
90 -29 17 -57 31 -62 31 -6 0 -10 5 -10 10 0 6 -4 10 -10 10 -5 0 -152 82
-327 183 -372 215 -1053 606 -1103 635 -19 11 -91 52 -160 92 -69 40 -141 81
-160 92 -147 84 -190 108 -197 108 -4 -1 -48 -25 -97 -54z"/>
</g>
</svg>
